<svg width="25" height="30" viewBox="0 0 25 30" fill="none" xmlns="http://www.w3.org/2000/svg">
<path d="M25.0008 8.30555V17.7842H22.9619C22.1347 17.7842 21.3156 17.6219 20.5515 17.3066C19.7873 16.9912 19.0931 16.529 18.5084 15.9464C17.9238 15.3638 17.4602 14.6722 17.1441 13.9111C16.8281 13.15 16.6658 12.3343 16.6665 11.5108V0.00488281C17.7612 0.00488275 18.8452 0.219609 19.8565 0.63679C20.8679 1.05397 21.7867 1.66544 22.5607 2.43626C23.3346 3.20708 23.9485 4.12216 24.3671 5.12923C24.7858 6.1363 25.0011 7.21562 25.0008 8.30555Z" fill="url(#paint0_linear_1_5466)"/>
<path d="M16.6657 21.2855C15.5975 21.2852 14.5398 21.4944 13.5528 21.9012C12.5659 22.308 11.6691 22.9045 10.9138 23.6565C10.1584 24.4086 9.55934 25.3014 9.15073 26.2841C8.74212 27.2667 8.53199 28.3199 8.53235 29.3835V29.9998H8.33425C6.12435 29.9998 4.00492 29.126 2.44203 27.5704C0.879131 26.0148 0.000729581 23.9049 0 21.7047V8.30579C0 8.30579 0.173346 20.9732 16.6657 21.2855Z" fill="url(#paint1_linear_1_5466)"/>
<path d="M25 19.812V21.6913C25.0015 23.1028 24.6396 24.4912 23.9489 25.7239C23.263 24.3887 22.2198 23.2681 20.9346 22.486C19.6493 21.7038 18.172 21.2904 16.6657 21.2914C0.17335 20.9736 4.08986e-06 8.30615 4.08986e-06 8.30615C-0.00108037 7.21622 0.21351 6.13676 0.631515 5.12941C1.04952 4.12207 1.66275 3.20659 2.43619 2.43525C3.20962 1.66392 4.12809 1.05185 5.13915 0.634001C6.15021 0.216155 7.23405 0.000719129 8.32875 0V8.88966C8.32875 8.88966 7.80872 17.1547 16.3438 19.2997C17.8125 19.6554 19.32 19.8275 20.8315 19.812H25Z" fill="url(#paint2_linear_1_5466)"/>
<path d="M23.9497 25.7322C23.2276 27.0247 22.1716 28.1014 20.891 28.8508C19.6104 29.6003 18.1519 29.9953 16.6665 29.9949V21.2915C18.1737 21.2913 19.6516 21.7059 20.9369 22.4896C22.2222 23.2733 23.2648 24.3955 23.9497 25.7322Z" fill="url(#paint3_linear_1_5466)"/>
<defs>
<linearGradient id="paint0_linear_1_5466" x1="16.6665" y1="8.88907" x2="25.0008" y2="8.88907" gradientUnits="userSpaceOnUse">
<stop stop-color="#48BBC1"/>
<stop offset="1" stop-color="#00679A"/>
</linearGradient>
<linearGradient id="paint1_linear_1_5466" x1="-3.32104" y1="11.6041" x2="11.7762" y2="26.7702" gradientUnits="userSpaceOnUse">
<stop stop-color="#0064B0"/>
<stop offset="1" stop-color="#48BBC1"/>
</linearGradient>
<linearGradient id="paint2_linear_1_5466" x1="1.27944" y1="3.586" x2="23.639" y2="26.0434" gradientUnits="userSpaceOnUse">
<stop stop-color="#48BBC1"/>
<stop offset="1" stop-color="#0064B0"/>
</linearGradient>
<linearGradient id="paint3_linear_1_5466" x1="15.3293" y1="22.6256" x2="21.3972" y2="28.7201" gradientUnits="userSpaceOnUse">
<stop stop-color="#0064B0"/>
<stop offset="1" stop-color="#48BBC1"/>
</linearGradient>
</defs>
</svg>
