<svg width="24" height="25" viewBox="0 0 24 25" fill="none" xmlns="http://www.w3.org/2000/svg">
<path d="M12 22.9578C11.31 22.9578 10.66 22.6078 10.2 21.9978L8.7 19.9978C8.67 19.9578 8.55 19.9078 8.5 19.8978H8C3.83 19.8978 1.25 18.7678 1.25 13.1478V8.14783C1.25 3.72783 3.58 1.39783 8 1.39783H16C20.42 1.39783 22.75 3.72783 22.75 8.14783V13.1478C22.75 17.5678 20.42 19.8978 16 19.8978H15.5C15.42 19.8978 15.35 19.9378 15.3 19.9978L13.8 21.9978C13.34 22.6078 12.69 22.9578 12 22.9578ZM8 2.89783C4.42 2.89783 2.75 4.56783 2.75 8.14783V13.1478C2.75 17.6678 4.3 18.3978 8 18.3978H8.5C9.01 18.3978 9.59 18.6878 9.9 19.0978L11.4 21.0978C11.75 21.5578 12.25 21.5578 12.6 21.0978L14.1 19.0978C14.43 18.6578 14.95 18.3978 15.5 18.3978H16C19.58 18.3978 21.25 16.7278 21.25 13.1478V8.14783C21.25 4.56783 19.58 2.89783 16 2.89783H8Z" fill="white"/>
<path d="M12 12.1478C11.44 12.1478 11 11.6978 11 11.1478C11 10.5978 11.45 10.1478 12 10.1478C12.55 10.1478 13 10.5978 13 11.1478C13 11.6978 12.56 12.1478 12 12.1478Z" fill="white"/>
<path d="M16 12.1478C15.44 12.1478 15 11.6978 15 11.1478C15 10.5978 15.45 10.1478 16 10.1478C16.55 10.1478 17 10.5978 17 11.1478C17 11.6978 16.56 12.1478 16 12.1478Z" fill="white"/>
<path d="M8 12.1478C7.44 12.1478 7 11.6978 7 11.1478C7 10.5978 7.45 10.1478 8 10.1478C8.55 10.1478 9 10.5978 9 11.1478C9 11.6978 8.56 12.1478 8 12.1478Z" fill="white"/>
</svg>
