<svg width="24" height="24" viewBox="0 0 24 24" fill="none" xmlns="http://www.w3.org/2000/svg">
<path d="M12 8.25C10.21 8.25 8.75 9.71 8.75 11.5C8.75 13.29 10.21 14.75 12 14.75C13.79 14.75 15.25 13.29 15.25 11.5C15.25 9.71 13.79 8.25 12 8.25ZM13 11.18C13 11.79 12.67 12.37 12.15 12.68L11.38 13.14C11.26 13.21 11.13 13.25 10.99 13.25C10.74 13.25 10.49 13.12 10.35 12.89C10.14 12.53 10.25 12.07 10.61 11.86L11.37 11.4C11.45 11.35 11.49 11.27 11.49 11.19V10.26C11.49 9.85 11.83 9.51 12.24 9.51C12.65 9.51 13 9.84 13 10.25V11.18Z" fill="#DF5151"/>
<path d="M18.5398 4.16965L13.0398 2.10965C12.4698 1.89965 11.5398 1.89965 10.9698 2.10965L5.4698 4.16965C4.4098 4.56965 3.5498 5.80965 3.5498 6.93965V15.0396C3.5498 15.8496 4.0798 16.9196 4.7298 17.3996L10.2298 21.5096C11.1998 22.2396 12.7898 22.2396 13.7598 21.5096L19.2598 17.3996C19.9098 16.9096 20.4398 15.8496 20.4398 15.0396V6.93965C20.4498 5.80965 19.5898 4.56965 18.5398 4.16965ZM11.9998 16.2496C9.3798 16.2496 7.2498 14.1196 7.2498 11.4996C7.2498 8.87965 9.3798 6.74965 11.9998 6.74965C14.6198 6.74965 16.7498 8.87965 16.7498 11.4996C16.7498 14.1196 14.6198 16.2496 11.9998 16.2496Z" fill="#DF5151"/>
</svg>
