<svg width="24" height="25" viewBox="0 0 24 25" fill="none" xmlns="http://www.w3.org/2000/svg">
<path d="M16.19 2.14783H7.81C4.17 2.14783 2 4.31783 2 7.95783V16.3278C2 19.9778 4.17 22.1478 7.81 22.1478H16.18C19.82 22.1478 21.99 19.9778 21.99 16.3378V7.95783C22 4.31783 19.83 2.14783 16.19 2.14783ZM12 16.0278C9.86 16.0278 8.12 14.2878 8.12 12.1478C8.12 10.0078 9.86 8.26783 12 8.26783C14.14 8.26783 15.88 10.0078 15.88 12.1478C15.88 14.2878 14.14 16.0278 12 16.0278ZM17.92 7.02783C17.87 7.14783 17.8 7.25783 17.71 7.35783C17.61 7.44783 17.5 7.51783 17.38 7.56783C17.26 7.61783 17.13 7.64783 17 7.64783C16.73 7.64783 16.48 7.54783 16.29 7.35783C16.2 7.25783 16.13 7.14783 16.08 7.02783C16.03 6.90783 16 6.77783 16 6.64783C16 6.51783 16.03 6.38783 16.08 6.26783C16.13 6.13783 16.2 6.03783 16.29 5.93783C16.52 5.70783 16.87 5.59783 17.19 5.66783C17.26 5.67783 17.32 5.69783 17.38 5.72783C17.44 5.74783 17.5 5.77783 17.56 5.81783C17.61 5.84783 17.66 5.89783 17.71 5.93783C17.8 6.03783 17.87 6.13783 17.92 6.26783C17.97 6.38783 18 6.51783 18 6.64783C18 6.77783 17.97 6.90783 17.92 7.02783Z" fill="#BAD2FA"/>
</svg>
