<svg width="25" height="25" viewBox="0 0 25 25" fill="none" xmlns="http://www.w3.org/2000/svg">
<path d="M6.93949 3.98191C7.20916 2.8698 8.79084 2.8698 9.06051 3.98191L9.80252 7.04195C9.8988 7.43901 10.2088 7.74902 10.6059 7.8453L13.6659 8.58732C14.778 8.85699 14.778 10.4387 13.6659 10.7083L10.6059 11.4503C10.2088 11.5466 9.8988 11.8566 9.80252 12.2537L9.06051 15.3137C8.79084 16.4259 7.20916 16.4259 6.93949 15.3137L6.19748 12.2537C6.1012 11.8566 5.79118 11.5466 5.39413 11.4504L2.33408 10.7083C1.22197 10.4387 1.22197 8.85699 2.33408 8.58732L5.39413 7.8453C5.79118 7.74902 6.1012 7.43901 6.19748 7.04195L6.93949 3.98191Z" fill="white"/>
<path d="M15.8474 14.6611C16.0133 13.9767 16.9867 13.9767 17.1526 14.6611L17.6092 16.5442C17.6685 16.7886 17.8593 16.9793 18.1036 17.0386L19.9867 17.4952C20.6711 17.6612 20.6711 18.6345 19.9867 18.8004L18.1036 19.2571C17.8593 19.3163 17.6685 19.5071 17.6092 19.7514L17.1526 21.6345C16.9867 22.3189 16.0133 22.3189 15.8474 21.6345L15.3908 19.7514C15.3315 19.5071 15.1407 19.3163 14.8964 19.2571L13.0133 18.8004C12.3289 18.6345 12.3289 17.6612 13.0133 17.4952L14.8964 17.0386C15.1407 16.9793 15.3315 16.7886 15.3908 16.5442L15.8474 14.6611Z" fill="white"/>
<path d="M19.0717 3.85967C19.1806 3.41055 19.8194 3.41055 19.9283 3.85967L20.2279 5.09546C20.2668 5.25581 20.392 5.381 20.5524 5.41989L21.7882 5.71955C22.2373 5.82845 22.2373 6.4672 21.7882 6.57611L20.5524 6.87577C20.392 6.91465 20.2668 7.03985 20.2279 7.2002L19.9283 8.43599C19.8194 8.88511 19.1806 8.88511 19.0717 8.43599L18.7721 7.2002C18.7332 7.03985 18.608 6.91465 18.4476 6.87577L17.2118 6.57611C16.7627 6.4672 16.7627 5.82845 17.2118 5.71955L18.4476 5.41989C18.608 5.381 18.7332 5.25581 18.7721 5.09546L19.0717 3.85967Z" fill="white"/>
<path fill-rule="evenodd" clip-rule="evenodd" d="M19.5 4.07892L19.2554 5.08754C19.1577 5.49071 18.8429 5.80549 18.4397 5.90325L17.4311 6.14783L18.4397 6.3924C18.8429 6.49016 19.1577 6.80495 19.2554 7.20811L19.5 8.21673L19.7446 7.20811C19.8423 6.80495 20.1571 6.49016 20.5603 6.3924L21.5689 6.14783L20.5603 5.90325C20.1571 5.80549 19.8423 5.49071 19.7446 5.08754L19.5 4.07892ZM19.9895 3.53279C19.865 3.01951 19.135 3.01951 19.0105 3.53279L18.6681 4.94512C18.6236 5.12837 18.4805 5.27146 18.2973 5.31589L16.885 5.65836C16.3717 5.78283 16.3717 6.51283 16.885 6.63729L18.2973 6.97976C18.4805 7.0242 18.6236 7.16728 18.6681 7.35054L19.0105 8.76287C19.135 9.27615 19.865 9.27615 19.9895 8.76287L20.3319 7.35054C20.3764 7.16728 20.5195 7.0242 20.7027 6.97976L22.115 6.63729C22.6283 6.51283 22.6283 5.78283 22.115 5.65836L20.7027 5.31589C20.5195 5.27146 20.3764 5.12837 20.3319 4.94512L19.9895 3.53279Z" fill="white"/>
</svg>
