<svg width="30" height="43" viewBox="0 0 30 43" fill="none" xmlns="http://www.w3.org/2000/svg">
<circle cx="5.32812" cy="7" r="2" fill="#0064B0"/>
<path d="M29.3281 15.8736V33.4005L25.4139 34C23.8259 34 22.2535 33.6896 20.7865 33.0866C19.3194 32.4835 17.9867 31.5997 16.8643 30.4855C15.7418 29.3714 14.8518 28.0488 14.2451 26.5933C13.6383 25.1378 13.3267 23.578 13.3281 22.0031V0C15.4297 -1.13588e-07 17.5107 0.410628 19.4523 1.20842C21.3938 2.00621 23.1579 3.17553 24.6437 4.6496C26.1295 6.12368 27.3079 7.87361 28.1117 9.79946C28.9155 11.7253 29.3288 13.7893 29.3281 15.8736Z" fill="url(#paint0_linear_1_5501)"/>
<path d="M19.5777 21.272L29.479 33.3198L26.7076 35.8685C25.6445 36.6935 24.4249 37.2954 23.1185 37.6397C21.812 37.984 20.4444 38.0639 19.0937 37.8748C17.743 37.6858 16.4357 37.2316 15.2466 36.5381C14.0575 35.8446 13.0099 34.9254 12.1637 33.8331L0.328128 18.5835C1.73502 17.4916 3.34902 16.6949 5.07791 16.2391C6.8068 15.7833 8.61671 15.6771 10.4043 15.9268C12.1919 16.1765 13.922 16.777 15.496 17.6941C17.07 18.6113 18.457 19.827 19.5777 21.272Z" fill="url(#paint1_linear_1_5501)"/>
<defs>
<linearGradient id="paint0_linear_1_5501" x1="29.3283" y1="33.9999" x2="14.328" y2="4.42933e-05" gradientUnits="userSpaceOnUse">
<stop stop-color="#97BCF8"/>
<stop offset="1" stop-color="#5CBDF8" stop-opacity="0.5"/>
</linearGradient>
<linearGradient id="paint1_linear_1_5501" x1="29.3281" y1="32.5" x2="1.32812" y2="19" gradientUnits="userSpaceOnUse">
<stop stop-color="#97BCF8"/>
<stop offset="1" stop-color="#5CBDF8"/>
</linearGradient>
</defs>
</svg>
