<svg width="24" height="25" viewBox="0 0 24 25" fill="none" xmlns="http://www.w3.org/2000/svg">
<path d="M8 22.4672C7.72 22.4672 7.42998 22.3973 7.16998 22.2573C6.59998 21.9573 6.25 21.3572 6.25 20.7172V19.2973C3.23 18.9873 1.25 16.7672 1.25 13.5872V7.58728C1.25 4.14728 3.56 1.83728 7 1.83728H17C20.44 1.83728 22.75 4.14728 22.75 7.58728V13.5872C22.75 17.0272 20.44 19.3372 17 19.3372H13.23L8.96997 22.1773C8.67997 22.3673 8.34 22.4672 8 22.4672ZM7 3.32727C4.42 3.32727 2.75 4.99727 2.75 7.57727V13.5773C2.75 16.1573 4.42 17.8273 7 17.8273C7.41 17.8273 7.75 18.1673 7.75 18.5773V20.7073C7.75 20.8373 7.83 20.8973 7.88 20.9273C7.93001 20.9573 8.03001 20.9873 8.14001 20.9173L12.59 17.9573C12.71 17.8773 12.86 17.8273 13.01 17.8273H17.01C19.59 17.8273 21.26 16.1573 21.26 13.5773V7.57727C21.26 4.99727 19.59 3.32727 17.01 3.32727H7Z" fill="white"/>
<path d="M11.9998 12.2582C11.5898 12.2582 11.2498 11.9182 11.2498 11.5082V11.2982C11.2498 10.1382 12.0998 9.56821 12.4198 9.34821C12.7898 9.09821 12.9098 8.92821 12.9098 8.66821C12.9098 8.16821 12.4998 7.75818 11.9998 7.75818C11.4998 7.75818 11.0898 8.16821 11.0898 8.66821C11.0898 9.07821 10.7498 9.41821 10.3398 9.41821C9.92984 9.41821 9.58984 9.07821 9.58984 8.66821C9.58984 7.33821 10.6698 6.25818 11.9998 6.25818C13.3298 6.25818 14.4098 7.33821 14.4098 8.66821C14.4098 9.80821 13.5698 10.3782 13.2598 10.5882C12.8698 10.8482 12.7498 11.0182 12.7498 11.2982V11.5082C12.7498 11.9282 12.4098 12.2582 11.9998 12.2582Z" fill="white"/>
<path d="M12 14.7474C11.58 14.7474 11.25 14.4074 11.25 13.9974C11.25 13.5874 11.59 13.2474 12 13.2474C12.41 13.2474 12.75 13.5874 12.75 13.9974C12.75 14.4074 12.42 14.7474 12 14.7474Z" fill="white"/>
</svg>
