<svg width="24" height="25" viewBox="0 0 24 25" fill="none" xmlns="http://www.w3.org/2000/svg">
<path d="M16.1401 3.10787L7.11012 6.10787C1.04012 8.13787 1.04012 11.4479 7.11012 13.4679L9.79012 14.3579L10.6801 17.0379C12.7001 23.1079 16.0201 23.1079 18.0401 17.0379L21.0501 8.01787C22.3901 3.96787 20.1901 1.75787 16.1401 3.10787ZM16.4601 8.48787L12.6601 12.3079C12.5101 12.4579 12.3201 12.5279 12.1301 12.5279C11.9401 12.5279 11.7501 12.4579 11.6001 12.3079C11.3101 12.0179 11.3101 11.5379 11.6001 11.2479L15.4001 7.42787C15.6901 7.13787 16.1701 7.13787 16.4601 7.42787C16.7501 7.71787 16.7501 8.19787 16.4601 8.48787Z" fill="#BAD2FA"/>
</svg>
