<svg width="40" height="22" viewBox="0 0 40 22" fill="none" xmlns="http://www.w3.org/2000/svg">
<g clip-path="url(#clip0_28_939)">
<path d="M38.4866 20.2602C39.3226 20.2602 40.0066 19.5802 39.9446 18.7462C39.1696 8.40823 30.5356 0.26123 20.0006 0.26123C9.46564 0.26123 0.830643 8.40823 0.0566427 18.7462C-0.0053573 19.5802 0.678643 20.2612 1.51464 20.2612C2.35164 20.2612 3.02264 19.5812 3.09564 18.7472C3.86164 10.0832 11.1376 3.29023 20.0006 3.29023C28.8636 3.29023 36.1396 10.0832 36.9046 18.7472C36.9786 19.5802 37.6496 20.2612 38.4856 20.2612L38.4866 20.2602Z" fill="#317AF1"/>
<path d="M19.7742 21.575C18.8582 21.645 18.0392 20.707 17.9462 19.48C17.8532 18.254 18.5202 17.203 19.4362 17.134C20.3522 17.064 36.8762 18.04 36.8762 18.04C36.8762 18.04 20.6902 21.505 19.7742 21.575Z" fill="#317AF1"/>
</g>
<defs>
<clipPath id="clip0_28_939">
<rect width="40" height="22" fill="white"/>
</clipPath>
</defs>
</svg>
