<svg width="24" height="25" viewBox="0 0 24 25" fill="none" xmlns="http://www.w3.org/2000/svg">
<path d="M17.6601 22.8181C17.1301 22.8181 16.4501 22.6481 15.6001 22.1481L12.6101 20.3781C12.3001 20.1981 11.7001 20.1981 11.4001 20.3781L8.40012 22.1481C6.63012 23.1981 5.59012 22.7781 5.12012 22.4381C4.66012 22.0981 3.94012 21.2281 4.41012 19.2281L5.12012 16.1581C5.20012 15.8381 5.04012 15.2881 4.80012 15.0481L2.32012 12.5681C1.08012 11.3281 1.18012 10.2681 1.35012 9.74814C1.52012 9.22814 2.06012 8.30814 3.78012 8.01814L6.97012 7.48814C7.27012 7.43814 7.70012 7.11814 7.83012 6.84814L9.60012 3.31814C10.4001 1.70814 11.4501 1.46814 12.0001 1.46814C12.5501 1.46814 13.6001 1.70814 14.4001 3.31814L16.1601 6.83814C16.3001 7.10814 16.7301 7.42814 17.0301 7.47814L20.2201 8.00814C21.9501 8.29814 22.4901 9.21814 22.6501 9.73814C22.8101 10.2581 22.9101 11.3181 21.6801 12.5581L19.2001 15.0481C18.9601 15.2881 18.8101 15.8281 18.8801 16.1581L19.5901 19.2281C20.0501 21.2281 19.3401 22.0981 18.8801 22.4381C18.6301 22.6181 18.2301 22.8181 17.6601 22.8181ZM12.0001 18.7381C12.4901 18.7381 12.9801 18.8581 13.3701 19.0881L16.3601 20.8581C17.2301 21.3781 17.7801 21.3781 17.9901 21.2281C18.2001 21.0781 18.3501 20.5481 18.1301 19.5681L17.4201 16.4981C17.2301 15.6681 17.5401 14.5981 18.1401 13.9881L20.6201 11.5081C21.1101 11.0181 21.3301 10.5381 21.2301 10.2081C21.1201 9.87814 20.6601 9.60814 19.9801 9.49814L16.7901 8.96814C16.0201 8.83814 15.1801 8.21814 14.8301 7.51814L13.0701 3.99814C12.7501 3.35814 12.3501 2.97814 12.0001 2.97814C11.6501 2.97814 11.2501 3.35814 10.9401 3.99814L9.17012 7.51814C8.82012 8.21814 7.98012 8.83814 7.21012 8.96814L4.03012 9.49814C3.35012 9.60814 2.89012 9.87814 2.78012 10.2081C2.67012 10.5381 2.90012 11.0281 3.39012 11.5081L5.87012 13.9881C6.47012 14.5881 6.78012 15.6681 6.59012 16.4981L5.88012 19.5681C5.65012 20.5581 5.81012 21.0781 6.02012 21.2281C6.23012 21.3781 6.77012 21.3681 7.65012 20.8581L10.6401 19.0881C11.0201 18.8581 11.5101 18.7381 12.0001 18.7381Z" fill="white"/>
</svg>
