<svg width="24" height="24" viewBox="0 0 24 24" fill="none" xmlns="http://www.w3.org/2000/svg">
<path d="M8.38965 18.4897V8.32973C8.38965 7.92973 8.50965 7.53973 8.72965 7.20973L11.4596 3.14973C11.8896 2.49973 12.9596 2.03973 13.8696 2.37973C14.8496 2.70973 15.4996 3.80973 15.2896 4.78973L14.7696 8.05973C14.7296 8.35973 14.8096 8.62973 14.9796 8.83973C15.1496 9.02973 15.3996 9.14973 15.6696 9.14973H19.7796C20.5696 9.14973 21.2496 9.46973 21.6496 10.0297C22.0296 10.5697 22.0996 11.2697 21.8496 11.9797L19.3896 19.4697C19.0796 20.7097 17.7296 21.7197 16.3896 21.7197H12.4896C11.8196 21.7197 10.8796 21.4897 10.4496 21.0597L9.16965 20.0697C8.67965 19.6997 8.38965 19.1097 8.38965 18.4897Z" fill="#43BA4F"/>
<path d="M5.21 6.38H4.18C2.63 6.38 2 6.98 2 8.46V18.52C2 20 2.63 20.6 4.18 20.6H5.21C6.76 20.6 7.39 20 7.39 18.52V8.46C7.39 6.98 6.76 6.38 5.21 6.38Z" fill="#43BA4F"/>
</svg>
