<svg width="24" height="25" viewBox="0 0 24 25" fill="none" xmlns="http://www.w3.org/2000/svg">
<path d="M10.7901 15.3181C10.5901 15.3181 10.4001 15.2381 10.2601 15.0981L7.84006 12.6781C7.55006 12.3881 7.55006 11.9081 7.84006 11.6181C8.13006 11.3281 8.61006 11.3281 8.90006 11.6181L10.7901 13.5081L15.0901 9.2081C15.3801 8.9181 15.8601 8.9181 16.1501 9.2081C16.4401 9.4981 16.4401 9.9781 16.1501 10.2681L11.3201 15.0981C11.1801 15.2381 10.9901 15.3181 10.7901 15.3181Z" fill="white"/>
<path d="M11.9999 22.8978C11.3699 22.8978 10.7399 22.6878 10.2499 22.2678L8.66988 20.9078C8.50988 20.7678 8.10988 20.6278 7.89988 20.6278H6.17988C4.69988 20.6278 3.49988 19.4278 3.49988 17.9478V16.2378C3.49988 16.0278 3.35988 15.6378 3.21988 15.4778L1.86988 13.8878C1.04988 12.9178 1.04988 11.3878 1.86988 10.4178L3.21988 8.82783C3.35988 8.66783 3.49988 8.27783 3.49988 8.06783V6.34783C3.49988 4.86783 4.69988 3.66783 6.17988 3.66783H7.90988C8.11988 3.66783 8.51988 3.51783 8.67988 3.38783L10.2599 2.02783C11.2399 1.18783 12.7699 1.18783 13.7499 2.02783L15.3299 3.38783C15.4899 3.52783 15.8899 3.66783 16.0999 3.66783H17.7999C19.2799 3.66783 20.4799 4.86783 20.4799 6.34783V8.04783C20.4799 8.25783 20.6299 8.65783 20.7699 8.81783L22.1299 10.3978C22.9699 11.3778 22.9699 12.9078 22.1299 13.8878L20.7699 15.4678C20.6299 15.6278 20.4799 16.0278 20.4799 16.2378V17.9378C20.4799 19.4178 19.2799 20.6178 17.7999 20.6178H16.0999C15.8899 20.6178 15.4899 20.7678 15.3299 20.8978L13.7499 22.2578C13.2599 22.6878 12.6299 22.8978 11.9999 22.8978ZM6.17988 5.16783C5.52988 5.16783 4.99988 5.69783 4.99988 6.34783V8.05783C4.99988 8.62783 4.72988 9.35783 4.35988 9.78783L3.00988 11.3778C2.65988 11.7878 2.65988 12.4978 3.00988 12.9078L4.35988 14.4978C4.72988 14.9378 4.99988 15.6578 4.99988 16.2278V17.9378C4.99988 18.5878 5.52988 19.1178 6.17988 19.1178H7.90988C8.48988 19.1178 9.21988 19.3878 9.65988 19.7678L11.2399 21.1278C11.6499 21.4778 12.3699 21.4778 12.7799 21.1278L14.3599 19.7678C14.7999 19.3978 15.5299 19.1178 16.1099 19.1178H17.8099C18.4599 19.1178 18.9899 18.5878 18.9899 17.9378V16.2378C18.9899 15.6578 19.2599 14.9278 19.6399 14.4878L20.9999 12.9078C21.3499 12.4978 21.3499 11.7778 20.9999 11.3678L19.6399 9.78783C19.2599 9.34783 18.9899 8.61783 18.9899 8.03783V6.34783C18.9899 5.69783 18.4599 5.16783 17.8099 5.16783H16.1099C15.5299 5.16783 14.7999 4.89783 14.3599 4.51783L12.7799 3.15783C12.3699 2.80783 11.6499 2.80783 11.2399 3.15783L9.65988 4.52783C9.21988 4.89783 8.47988 5.16783 7.90988 5.16783H6.17988Z" fill="white"/>
</svg>
