<svg width="20" height="20" viewBox="0 0 20 20" fill="none" xmlns="http://www.w3.org/2000/svg">
<path d="M4.86487 17.6923C4.86487 18.3043 4.6086 18.8913 4.15243 19.3241C3.69626 19.7569 3.07756 20 2.43244 20C1.78731 20 1.16861 19.7569 0.712444 19.3241C0.256274 18.8913 0 18.3043 0 17.6923C0 17.0803 0.256274 16.4933 0.712444 16.0605C1.16861 15.6277 1.78731 15.3846 2.43244 15.3846C3.07756 15.3846 3.69626 15.6277 4.15243 16.0605C4.6086 16.4933 4.86487 17.0803 4.86487 17.6923ZM4.86487 10C4.86487 10.612 4.6086 11.199 4.15243 11.6318C3.69626 12.0646 3.07756 12.3077 2.43244 12.3077C1.78731 12.3077 1.16861 12.0646 0.712444 11.6318C0.256274 11.199 0 10.612 0 10C0 9.38796 0.256274 8.80099 0.712444 8.36821C1.16861 7.93544 1.78731 7.69231 2.43244 7.69231C3.07756 7.69231 3.69626 7.93544 4.15243 8.36821C4.6086 8.80099 4.86487 9.38796 4.86487 10ZM4.86487 2.30769C4.86487 2.91973 4.6086 3.5067 4.15243 3.93948C3.69626 4.37225 3.07756 4.61538 2.43244 4.61538C1.78731 4.61538 1.16861 4.37225 0.712444 3.93948C0.256274 3.5067 0 2.91973 0 2.30769C0 1.69565 0.256274 1.10868 0.712444 0.675907C1.16861 0.243131 1.78731 0 2.43244 0C3.07756 0 3.69626 0.243131 4.15243 0.675907C4.6086 1.10868 4.86487 1.69565 4.86487 2.30769Z" fill="url(#paint0_linear_1_5477)"/>
<path d="M12.4323 17.6923C12.4323 18.3043 12.176 18.8913 11.7198 19.3241C11.2636 19.7569 10.6449 20 9.99982 20C9.3547 20 8.736 19.7569 8.27983 19.3241C7.82366 18.8913 7.56738 18.3043 7.56738 17.6923C7.56738 17.0803 7.82366 16.4933 8.27983 16.0605C8.736 15.6277 9.3547 15.3846 9.99982 15.3846C10.6449 15.3846 11.2636 15.6277 11.7198 16.0605C12.176 16.4933 12.4323 17.0803 12.4323 17.6923ZM12.4323 10C12.4323 10.612 12.176 11.199 11.7198 11.6318C11.2636 12.0646 10.6449 12.3077 9.99982 12.3077C9.3547 12.3077 8.736 12.0646 8.27983 11.6318C7.82366 11.199 7.56738 10.612 7.56738 10C7.56738 9.38796 7.82366 8.80099 8.27983 8.36821C8.736 7.93544 9.3547 7.69231 9.99982 7.69231C10.6449 7.69231 11.2636 7.93544 11.7198 8.36821C12.176 8.80099 12.4323 9.38796 12.4323 10ZM12.4323 2.30769C12.4323 2.91973 12.176 3.5067 11.7198 3.93948C11.2636 4.37225 10.6449 4.61538 9.99982 4.61538C9.3547 4.61538 8.736 4.37225 8.27983 3.93948C7.82366 3.5067 7.56738 2.91973 7.56738 2.30769C7.56738 1.69565 7.82366 1.10868 8.27983 0.675907C8.736 0.243131 9.3547 0 9.99982 0C10.6449 0 11.2636 0.243131 11.7198 0.675907C12.176 1.10868 12.4323 1.69565 12.4323 2.30769Z" fill="url(#paint1_linear_1_5477)"/>
<path d="M20.0001 17.6923C20.0001 18.3043 19.7439 18.8913 19.2877 19.3241C18.8315 19.7569 18.2128 20 17.5677 20C16.9226 20 16.3039 19.7569 15.8477 19.3241C15.3915 18.8913 15.1353 18.3043 15.1353 17.6923C15.1353 17.0803 15.3915 16.4933 15.8477 16.0605C16.3039 15.6277 16.9226 15.3846 17.5677 15.3846C18.2128 15.3846 18.8315 15.6277 19.2877 16.0605C19.7439 16.4933 20.0001 17.0803 20.0001 17.6923ZM20.0001 10C20.0001 10.612 19.7439 11.199 19.2877 11.6318C18.8315 12.0646 18.2128 12.3077 17.5677 12.3077C16.9226 12.3077 16.3039 12.0646 15.8477 11.6318C15.3915 11.199 15.1353 10.612 15.1353 10C15.1353 9.38796 15.3915 8.80099 15.8477 8.36821C16.3039 7.93544 16.9226 7.69231 17.5677 7.69231C18.2128 7.69231 18.8315 7.93544 19.2877 8.36821C19.7439 8.80099 20.0001 9.38796 20.0001 10ZM20.0001 2.30769C20.0001 2.91973 19.7439 3.5067 19.2877 3.93948C18.8315 4.37225 18.2128 4.61538 17.5677 4.61538C16.9226 4.61538 16.3039 4.37225 15.8477 3.93948C15.3915 3.5067 15.1353 2.91973 15.1353 2.30769C15.1353 1.69565 15.3915 1.10868 15.8477 0.675907C16.3039 0.243131 16.9226 0 17.5677 0C18.2128 0 18.8315 0.243131 19.2877 0.675907C19.7439 1.10868 20.0001 1.69565 20.0001 2.30769Z" fill="url(#paint2_linear_1_5477)"/>
<defs>
<linearGradient id="paint0_linear_1_5477" x1="2.43244" y1="0" x2="2.43244" y2="20" gradientUnits="userSpaceOnUse">
<stop stop-color="#97BCF8"/>
<stop offset="1" stop-color="#25BFF8"/>
</linearGradient>
<linearGradient id="paint1_linear_1_5477" x1="9.99982" y1="0" x2="9.99982" y2="20" gradientUnits="userSpaceOnUse">
<stop stop-color="#97BCF8"/>
<stop offset="1" stop-color="#25BFF8"/>
</linearGradient>
<linearGradient id="paint2_linear_1_5477" x1="17.5677" y1="0" x2="17.5677" y2="20" gradientUnits="userSpaceOnUse">
<stop stop-color="#97BCF8"/>
<stop offset="1" stop-color="#25BFF8"/>
</linearGradient>
</defs>
</svg>
